<svg xmlns="http://www.w3.org/2000/svg" viewBox="0 0 1600 900">
  <defs>
    <linearGradient id="tbg" x1="0" y1="0" x2="0" y2="1">
      <stop offset="0%" stop-color="#0d0d1a"/>
      <stop offset="100%" stop-color="#1a0d2e"/>
    </linearGradient>
    <filter id="tglow">
      <feGaussianBlur stdDeviation="3" result="blur"/>
      <feMerge><feMergeNode in="blur"/><feMergeNode in="SourceGraphic"/></feMerge>
    </filter>
    <filter id="tglow2">
      <feGaussianBlur stdDeviation="6" result="blur"/>
      <feMerge><feMergeNode in="blur"/><feMergeNode in="SourceGraphic"/></feMerge>
    </filter>
  </defs>

  <!-- Background -->
  <rect width="1600" height="900" fill="url(#tbg)"/>

  <!-- Subtle grid -->
  <g stroke="#1a1a30" stroke-width="1" opacity="0.8">
    <line x1="0" y1="50" x2="1600" y2="50"/>
    <line x1="0" y1="100" x2="1600" y2="100"/>
    <line x1="0" y1="150" x2="1600" y2="150"/>
    <line x1="0" y1="200" x2="1600" y2="200"/>
    <line x1="0" y1="250" x2="1600" y2="250"/>
    <line x1="0" y1="300" x2="1600" y2="300"/>
    <line x1="0" y1="350" x2="1600" y2="350"/>
    <line x1="0" y1="400" x2="1600" y2="400"/>
    <line x1="0" y1="450" x2="1600" y2="450"/>
    <line x1="0" y1="500" x2="1600" y2="500"/>
    <line x1="0" y1="550" x2="1600" y2="550"/>
    <line x1="0" y1="600" x2="1600" y2="600"/>
    <line x1="0" y1="650" x2="1600" y2="650"/>
    <line x1="0" y1="700" x2="1600" y2="700"/>
    <line x1="0" y1="750" x2="1600" y2="750"/>
    <line x1="50" y1="0" x2="50" y2="900"/>
    <line x1="100" y1="0" x2="100" y2="900"/>
    <line x1="150" y1="0" x2="150" y2="900"/>
    <line x1="200" y1="0" x2="200" y2="900"/>
    <line x1="250" y1="0" x2="250" y2="900"/>
    <line x1="300" y1="0" x2="300" y2="900"/>
    <line x1="350" y1="0" x2="350" y2="900"/>
    <line x1="400" y1="0" x2="400" y2="900"/>
    <line x1="450" y1="0" x2="450" y2="900"/>
    <line x1="500" y1="0" x2="500" y2="900"/>
    <line x1="550" y1="0" x2="550" y2="900"/>
    <line x1="600" y1="0" x2="600" y2="900"/>
    <line x1="650" y1="0" x2="650" y2="900"/>
    <line x1="700" y1="0" x2="700" y2="900"/>
    <line x1="750" y1="0" x2="750" y2="900"/>
    <line x1="800" y1="0" x2="800" y2="900"/>
    <line x1="850" y1="0" x2="850" y2="900"/>
    <line x1="900" y1="0" x2="900" y2="900"/>
    <line x1="950" y1="0" x2="950" y2="900"/>
    <line x1="1000" y1="0" x2="1000" y2="900"/>
    <line x1="1050" y1="0" x2="1050" y2="900"/>
    <line x1="1100" y1="0" x2="1100" y2="900"/>
    <line x1="1150" y1="0" x2="1150" y2="900"/>
    <line x1="1200" y1="0" x2="1200" y2="900"/>
    <line x1="1250" y1="0" x2="1250" y2="900"/>
    <line x1="1300" y1="0" x2="1300" y2="900"/>
    <line x1="1350" y1="0" x2="1350" y2="900"/>
    <line x1="1400" y1="0" x2="1400" y2="900"/>
    <line x1="1450" y1="0" x2="1450" y2="900"/>
    <line x1="1500" y1="0" x2="1500" y2="900"/>
    <line x1="1550" y1="0" x2="1550" y2="900"/>
  </g>

  <!-- Macro: helper to draw a tetromino block -->
  <!-- I-piece (cyan) - falling from top -->
  <g filter="url(#tglow2)">
    <rect x="580" y="20" width="48" height="48" rx="4" fill="#00e5ff" opacity="0.9"/>
    <rect x="632" y="20" width="48" height="48" rx="4" fill="#00e5ff" opacity="0.9"/>
    <rect x="684" y="20" width="48" height="48" rx="4" fill="#00e5ff" opacity="0.9"/>
    <rect x="736" y="20" width="48" height="48" rx="4" fill="#00e5ff" opacity="0.9"/>
    <!-- Highlight -->
    <rect x="584" y="24" width="40" height="8" rx="2" fill="#80f0ff" opacity="0.6"/>
    <rect x="636" y="24" width="40" height="8" rx="2" fill="#80f0ff" opacity="0.6"/>
    <rect x="688" y="24" width="40" height="8" rx="2" fill="#80f0ff" opacity="0.6"/>
    <rect x="740" y="24" width="40" height="8" rx="2" fill="#80f0ff" opacity="0.6"/>
  </g>

  <!-- T-piece (purple) -->
  <g filter="url(#tglow)">
    <rect x="380" y="160" width="48" height="48" rx="4" fill="#cc44ff" opacity="0.9"/>
    <rect x="432" y="160" width="48" height="48" rx="4" fill="#cc44ff" opacity="0.9"/>
    <rect x="484" y="160" width="48" height="48" rx="4" fill="#cc44ff" opacity="0.9"/>
    <rect x="432" y="112" width="48" height="48" rx="4" fill="#cc44ff" opacity="0.9"/>
    <rect x="384" y="164" width="40" height="8" rx="2" fill="#e099ff" opacity="0.6"/>
    <rect x="436" y="116" width="40" height="8" rx="2" fill="#e099ff" opacity="0.6"/>
    <rect x="436" y="164" width="40" height="8" rx="2" fill="#e099ff" opacity="0.6"/>
    <rect x="488" y="164" width="40" height="8" rx="2" fill="#e099ff" opacity="0.6"/>
  </g>

  <!-- S-piece (green) -->
  <g filter="url(#tglow)">
    <rect x="900" y="100" width="48" height="48" rx="4" fill="#44ff88" opacity="0.9"/>
    <rect x="952" y="100" width="48" height="48" rx="4" fill="#44ff88" opacity="0.9"/>
    <rect x="848" y="152" width="48" height="48" rx="4" fill="#44ff88" opacity="0.9"/>
    <rect x="900" y="152" width="48" height="48" rx="4" fill="#44ff88" opacity="0.9"/>
    <rect x="904" y="104" width="40" height="8" rx="2" fill="#aaffe0" opacity="0.6"/>
    <rect x="956" y="104" width="40" height="8" rx="2" fill="#aaffe0" opacity="0.6"/>
    <rect x="852" y="156" width="40" height="8" rx="2" fill="#aaffe0" opacity="0.6"/>
    <rect x="904" y="156" width="40" height="8" rx="2" fill="#aaffe0" opacity="0.6"/>
  </g>

  <!-- L-piece (orange) -->
  <g filter="url(#tglow)">
    <rect x="1100" y="60" width="48" height="48" rx="4" fill="#ff8800" opacity="0.9"/>
    <rect x="1100" y="112" width="48" height="48" rx="4" fill="#ff8800" opacity="0.9"/>
    <rect x="1100" y="164" width="48" height="48" rx="4" fill="#ff8800" opacity="0.9"/>
    <rect x="1152" y="164" width="48" height="48" rx="4" fill="#ff8800" opacity="0.9"/>
    <rect x="1104" y="64" width="40" height="8" rx="2" fill="#ffcc88" opacity="0.6"/>
    <rect x="1104" y="116" width="40" height="8" rx="2" fill="#ffcc88" opacity="0.6"/>
    <rect x="1104" y="168" width="40" height="8" rx="2" fill="#ffcc88" opacity="0.6"/>
    <rect x="1156" y="168" width="40" height="8" rx="2" fill="#ffcc88" opacity="0.6"/>
  </g>

  <!-- Stacked blocks at bottom – play field -->
  <!-- Row 1 (bottom, full - clearing flash) -->
  <g filter="url(#tglow2)" opacity="0.9">
    <rect x="300" y="660" width="48" height="48" rx="4" fill="#ffffff"/>
    <rect x="352" y="660" width="48" height="48" rx="4" fill="#ffffff"/>
    <rect x="404" y="660" width="48" height="48" rx="4" fill="#ffffff"/>
    <rect x="456" y="660" width="48" height="48" rx="4" fill="#ffffff"/>
    <rect x="508" y="660" width="48" height="48" rx="4" fill="#ffffff"/>
    <rect x="560" y="660" width="48" height="48" rx="4" fill="#ffffff"/>
    <rect x="612" y="660" width="48" height="48" rx="4" fill="#ffffff"/>
    <rect x="664" y="660" width="48" height="48" rx="4" fill="#ffffff"/>
    <rect x="716" y="660" width="48" height="48" rx="4" fill="#ffffff"/>
    <rect x="768" y="660" width="48" height="48" rx="4" fill="#ffffff"/>
    <rect x="820" y="660" width="48" height="48" rx="4" fill="#ffffff"/>
    <rect x="872" y="660" width="48" height="48" rx="4" fill="#ffffff"/>
    <rect x="924" y="660" width="48" height="48" rx="4" fill="#ffffff"/>
    <rect x="976" y="660" width="48" height="48" rx="4" fill="#ffffff"/>
    <rect x="1028" y="660" width="48" height="48" rx="4" fill="#ffffff"/>
    <rect x="1080" y="660" width="48" height="48" rx="4" fill="#ffffff"/>
    <rect x="1132" y="660" width="48" height="48" rx="4" fill="#ffffff"/>
    <rect x="1184" y="660" width="48" height="48" rx="4" fill="#ffffff"/>
    <rect x="1236" y="660" width="48" height="48" rx="4" fill="#ffffff"/>
    <rect x="1288" y="660" width="48" height="48" rx="4" fill="#ffffff"/>
  </g>

  <!-- Row 2 - colorful stacked pieces -->
  <g filter="url(#tglow)" opacity="0.85">
    <rect x="300" y="608" width="48" height="48" rx="4" fill="#ff4444"/>
    <rect x="352" y="608" width="48" height="48" rx="4" fill="#ff4444"/>
    <rect x="404" y="608" width="48" height="48" rx="4" fill="#ff4444"/>
    <rect x="456" y="608" width="48" height="48" rx="4" fill="#ff8800"/>
    <rect x="508" y="608" width="48" height="48" rx="4" fill="#ff8800"/>
    <rect x="560" y="608" width="48" height="48" rx="4" fill="#ffff00"/>
    <rect x="612" y="608" width="48" height="48" rx="4" fill="#ffff00"/>
    <rect x="664" y="608" width="48" height="48" rx="4" fill="#ffff00"/>
    <rect x="716" y="608" width="48" height="48" rx="4" fill="#ffff00"/>
    <rect x="768" y="608" width="48" height="48" rx="4" fill="#44ff88"/>
    <rect x="820" y="608" width="48" height="48" rx="4" fill="#44ff88"/>
    <rect x="872" y="608" width="48" height="48" rx="4" fill="#00e5ff"/>
    <rect x="924" y="608" width="48" height="48" rx="4" fill="#00e5ff"/>
    <rect x="976" y="608" width="48" height="48" rx="4" fill="#00e5ff"/>
    <rect x="1028" y="608" width="48" height="48" rx="4" fill="#4455ff"/>
    <rect x="1080" y="608" width="48" height="48" rx="4" fill="#4455ff"/>
    <rect x="1132" y="608" width="48" height="48" rx="4" fill="#cc44ff"/>
    <rect x="1184" y="608" width="48" height="48" rx="4" fill="#cc44ff"/>
    <rect x="1236" y="608" width="48" height="48" rx="4" fill="#ff4444"/>
    <rect x="1288" y="608" width="48" height="48" rx="4" fill="#ff4444"/>
  </g>

  <!-- Row 3 - partial row -->
  <g filter="url(#tglow)" opacity="0.75">
    <rect x="300" y="556" width="48" height="48" rx="4" fill="#4455ff"/>
    <rect x="352" y="556" width="48" height="48" rx="4" fill="#4455ff"/>
    <rect x="456" y="556" width="48" height="48" rx="4" fill="#cc44ff"/>
    <rect x="508" y="556" width="48" height="48" rx="4" fill="#cc44ff"/>
    <rect x="560" y="556" width="48" height="48" rx="4" fill="#cc44ff"/>
    <rect x="664" y="556" width="48" height="48" rx="4" fill="#ff8800"/>
    <rect x="716" y="556" width="48" height="48" rx="4" fill="#ff8800"/>
    <rect x="768" y="556" width="48" height="48" rx="4" fill="#ff8800"/>
    <rect x="924" y="556" width="48" height="48" rx="4" fill="#44ff88"/>
    <rect x="976" y="556" width="48" height="48" rx="4" fill="#44ff88"/>
    <rect x="1132" y="556" width="48" height="48" rx="4" fill="#ff4444"/>
    <rect x="1184" y="556" width="48" height="48" rx="4" fill="#ff4444"/>
    <rect x="1236" y="556" width="48" height="48" rx="4" fill="#ff4444"/>
    <rect x="1288" y="556" width="48" height="48" rx="4" fill="#ff4444"/>
  </g>

  <!-- "LINE CLEAR!" flash text -->
  <text x="800" y="640" font-family="monospace" font-size="36" fill="#ffffff" text-anchor="middle" font-weight="bold" filter="url(#tglow2)" opacity="0.7" letter-spacing="6">✦ LINE CLEAR ✦</text>

  <!-- Title overlay -->
  <rect x="0" y="750" width="1600" height="150" fill="#00000077"/>
  <text x="800" y="835" font-family="monospace" font-size="84" font-weight="bold" fill="#cc44ff" text-anchor="middle" letter-spacing="4" filter="url(#tglow2)">TETRIS</text>
  <text x="800" y="883" font-family="monospace" font-size="28" fill="#cc44ff99" text-anchor="middle" letter-spacing="4">With Effects · Ghost Piece · Sprint Mode</text>
</svg>
