<svg xmlns="http://www.w3.org/2000/svg" width="192" height="192" viewBox="0 0 64 64" shape-rendering="crispEdges">
  <rect width="64" height="64" fill="#00000000"/>
  <rect x="20" y="6" width="4" height="4" fill="#d64545"/>
  <rect x="24" y="6" width="4" height="4" fill="#f26a6a"/>
  <rect x="24" y="10" width="4" height="4" fill="#d64545"/>

  <rect x="18" y="14" width="28" height="24" fill="#fff8cf"/>
  <rect x="16" y="18" width="4" height="16" fill="#fff8cf"/>
  <rect x="46" y="20" width="4" height="14" fill="#fff8cf"/>
  <rect x="20" y="38" width="22" height="10" fill="#ffe69d"/>

  <rect x="38" y="22" width="4" height="4" fill="#1e1e2e"/>
  <rect x="44" y="24" width="6" height="4" fill="#f4b13b"/>
  <rect x="50" y="24" width="2" height="4" fill="#d9822b"/>

  <rect x="14" y="24" width="4" height="8" fill="#ffe69d"/>
  <rect x="12" y="26" width="2" height="4" fill="#ffe69d"/>

  <rect x="24" y="48" width="4" height="6" fill="#f6a23d"/>
  <rect x="34" y="48" width="4" height="6" fill="#f6a23d"/>
  <rect x="24" y="54" width="4" height="4" fill="#d9822b"/>
  <rect x="34" y="54" width="4" height="4" fill="#d9822b"/>

  <rect x="16" y="14" width="2" height="24" fill="#d4c586"/>
  <rect x="46" y="20" width="2" height="14" fill="#d4c586"/>
  <rect x="18" y="12" width="28" height="2" fill="#ffffff"/>
</svg>
